# MagicaVoxel @ Ephtracy

# group
o 

# material
mtllib Arm.mtl
usemtl palette

# normals
vn -1 0 0
vn 1 0 0
vn 0 0 1
vn 0 0 -1
vn 0 -1 0
vn 0 1 0

# texcoords
vt 0.849609 0.5
vt 0.853516 0.5
vt 0.970703 0.5

# verts
v 0.2 2.4 2.1
v 0.2 2.4 1.8
v 0.2 2.4 1.4
v 0.2 2.4 1.2
v 0.2 2.4 1
v 0.2 2.4 0.8
v 0.2 2.4 0.6
v 0.2 2.5 2
v 0.2 2.5 1.8
v 0.2 2.5 1.4
v 0.2 2.5 1.2
v 0.2 2.5 1
v 0.2 2.5 0.8
v 0.2 2.6 2.1
v 0.2 2.6 2
v 0.2 2.6 1.8
v 0.2 2.6 1.6
v 0.2 2.6 1.5
v 0.2 2.6 1.4
v 0.2 2.6 1.2
v 0.2 2.7 2
v 0.2 2.7 1.8
v 0.2 2.7 1.6
v 0.2 2.7 1.5
v 0.2 2.7 1.4
v 0.2 2.7 1.2
v 0.2 2.7 0.6
v 0.3 2.6 2.1
v 0.3 2.6 2
v 0.3 2.7 2.1
v 0.3 2.7 2
v 0.5 2.4 2.1
v 0.5 2.4 1.8
v 0.5 2.4 1.5
v 0.5 2.4 1.3
v 0.5 2.4 0.6
v 0.5 2.5 2
v 0.5 2.5 1.8
v 0.5 2.5 1.5
v 0.5 2.5 1.3
v 0.5 2.5 1
v 0.5 2.5 0.9
v 0.5 2.6 2.1
v 0.5 2.6 2
v 0.5 2.6 1.8
v 0.5 2.6 0.9
v 0.5 2.6 0.7
v 0.5 2.7 2.1
v 0.5 2.7 2
v 0.5 2.7 1.8
v 0.5 2.7 1
v 0.5 2.7 0.7
v 0.5 2.7 0.6
v 0.2 2.4 2.1
v 0.2 2.6 2.1
v 0.3 2.4 2.1
v 0.3 2.5 2.1
v 0.3 2.6 2.1
v 0.3 2.7 2.1
v 0.4 2.4 2.1
v 0.4 2.5 2.1
v 0.4 2.6 2.1
v 0.4 2.7 2.1
v 0.5 2.4 2.1
v 0.5 2.6 2.1
v 0.5 2.7 2.1
v 0.2 2.6 2
v 0.2 2.7 2
v 0.3 2.6 2
v 0.3 2.7 2
v 0.2 2.4 0.6
v 0.2 2.7 0.6
v 0.5 2.4 0.6
v 0.5 2.7 0.6
v 0.2 2.4 2.1
v 0.3 2.4 2.1
v 0.4 2.4 2.1
v 0.5 2.4 2.1
v 0.3 2.4 2
v 0.4 2.4 2
v 0.2 2.4 1.8
v 0.3 2.4 1.8
v 0.4 2.4 1.8
v 0.5 2.4 1.8
v 0.4 2.4 1.5
v 0.5 2.4 1.5
v 0.2 2.4 1.4
v 0.3 2.4 1.4
v 0.4 2.4 1.3
v 0.5 2.4 1.3
v 0.2 2.4 1.2
v 0.3 2.4 1.2
v 0.2 2.4 1
v 0.3 2.4 1
v 0.2 2.4 0.8
v 0.3 2.4 0.8
v 0.2 2.4 0.6
v 0.5 2.4 0.6
v 0.2 2.6 2.1
v 0.3 2.6 2.1
v 0.2 2.6 2
v 0.3 2.6 2
v 0.3 2.7 2.1
v 0.4 2.7 2.1
v 0.5 2.7 2.1
v 0.2 2.7 2
v 0.3 2.7 2
v 0.4 2.7 2
v 0.5 2.7 2
v 0.2 2.7 1.8
v 0.3 2.7 1.8
v 0.4 2.7 1.8
v 0.5 2.7 1.8
v 0.2 2.7 1.6
v 0.4 2.7 1.6
v 0.2 2.7 1.5
v 0.3 2.7 1.5
v 0.2 2.7 1.4
v 0.3 2.7 1.4
v 0.3 2.7 1.3
v 0.4 2.7 1.3
v 0.2 2.7 1.2
v 0.3 2.7 1.2
v 0.4 2.7 1
v 0.5 2.7 1
v 0.4 2.7 0.7
v 0.5 2.7 0.7
v 0.2 2.7 0.6
v 0.5 2.7 0.6

# faces
f 8/3/1 2/3/1 1/3/1
f 9/1/1 3/1/1 2/1/1
f 9/3/1 2/3/1 8/3/1
f 10/2/1 4/2/1 3/2/1
f 10/1/1 3/1/1 9/1/1
f 11/1/1 5/1/1 4/1/1
f 11/2/1 4/2/1 10/2/1
f 12/2/1 6/2/1 5/2/1
f 12/1/1 5/1/1 11/1/1
f 13/1/1 7/1/1 6/1/1
f 13/2/1 6/2/1 12/2/1
f 14/3/1 8/3/1 1/3/1
f 15/1/1 12/1/1 11/1/1
f 15/3/1 8/3/1 14/3/1
f 15/1/1 9/1/1 8/1/1
f 15/1/1 13/1/1 12/1/1
f 15/1/1 11/1/1 10/1/1
f 15/1/1 10/1/1 9/1/1
f 16/1/1 13/1/1 15/1/1
f 17/1/1 13/1/1 16/1/1
f 18/1/1 13/1/1 17/1/1
f 19/1/1 13/1/1 18/1/1
f 20/1/1 13/1/1 19/1/1
f 21/3/1 16/3/1 15/3/1
f 22/1/1 17/1/1 16/1/1
f 22/3/1 16/3/1 21/3/1
f 23/2/1 18/2/1 17/2/1
f 23/1/1 17/1/1 22/1/1
f 24/1/1 19/1/1 18/1/1
f 24/2/1 18/2/1 23/2/1
f 25/2/1 20/2/1 19/2/1
f 25/1/1 19/1/1 24/1/1
f 26/1/1 13/1/1 20/1/1
f 26/2/1 20/2/1 25/2/1
f 27/1/1 7/1/1 13/1/1
f 27/1/1 13/1/1 26/1/1
f 30/3/1 29/3/1 28/3/1
f 31/3/1 29/3/1 30/3/1
f 32/3/2 33/3/2 37/3/2
f 33/1/2 34/1/2 38/1/2
f 37/3/2 33/3/2 38/3/2
f 34/2/2 35/2/2 39/2/2
f 38/1/2 34/1/2 39/1/2
f 35/1/2 36/1/2 40/1/2
f 39/2/2 35/2/2 40/2/2
f 40/1/2 36/1/2 41/1/2
f 41/1/2 36/1/2 42/1/2
f 32/3/2 37/3/2 43/3/2
f 38/1/2 39/1/2 44/1/2
f 43/3/2 37/3/2 44/3/2
f 37/1/2 38/1/2 44/1/2
f 39/1/2 40/1/2 44/1/2
f 40/1/2 41/1/2 44/1/2
f 44/1/2 41/1/2 45/1/2
f 42/1/2 36/1/2 46/1/2
f 41/2/2 42/2/2 46/2/2
f 46/1/2 36/1/2 47/1/2
f 43/2/2 44/2/2 48/2/2
f 44/3/2 45/3/2 49/3/2
f 48/2/2 44/2/2 49/2/2
f 45/1/2 41/1/2 50/1/2
f 49/3/2 45/3/2 50/3/2
f 41/2/2 46/2/2 51/2/2
f 50/1/2 41/1/2 51/1/2
f 46/2/2 47/2/2 51/2/2
f 47/1/2 36/1/2 52/1/2
f 51/2/2 47/2/2 52/2/2
f 52/1/2 36/1/2 53/1/2
f 56/3/3 55/3/3 54/3/3
f 57/3/3 55/3/3 56/3/3
f 58/3/3 55/3/3 57/3/3
f 60/2/3 57/2/3 56/2/3
f 61/3/3 59/3/3 58/3/3
f 61/2/3 57/2/3 60/2/3
f 61/3/3 58/3/3 57/3/3
f 62/3/3 59/3/3 61/3/3
f 63/3/3 59/3/3 62/3/3
f 64/3/3 61/3/3 60/3/3
f 64/3/3 62/3/3 61/3/3
f 65/2/3 63/2/3 62/2/3
f 65/3/3 62/3/3 64/3/3
f 66/2/3 63/2/3 65/2/3
f 69/3/3 68/3/3 67/3/3
f 70/3/3 68/3/3 69/3/3
f 71/1/4 72/1/4 73/1/4
f 73/1/4 72/1/4 74/1/4
f 79/3/5 76/3/5 75/3/5
f 79/2/5 77/2/5 76/2/5
f 80/3/5 78/3/5 77/3/5
f 80/2/5 77/2/5 79/2/5
f 81/3/5 79/3/5 75/3/5
f 82/1/5 80/1/5 79/1/5
f 82/3/5 79/3/5 81/3/5
f 83/3/5 78/3/5 80/3/5
f 83/1/5 80/1/5 82/1/5
f 84/3/5 78/3/5 83/3/5
f 85/1/5 82/1/5 81/1/5
f 85/1/5 83/1/5 82/1/5
f 85/1/5 84/1/5 83/1/5
f 86/1/5 84/1/5 85/1/5
f 87/1/5 85/1/5 81/1/5
f 88/1/5 85/1/5 87/1/5
f 89/2/5 86/2/5 85/2/5
f 89/1/5 85/1/5 88/1/5
f 90/2/5 86/2/5 89/2/5
f 91/2/5 88/2/5 87/2/5
f 92/1/5 89/1/5 88/1/5
f 92/2/5 88/2/5 91/2/5
f 92/1/5 90/1/5 89/1/5
f 93/1/5 92/1/5 91/1/5
f 94/1/5 90/1/5 92/1/5
f 94/1/5 92/1/5 93/1/5
f 95/2/5 94/2/5 93/2/5
f 96/1/5 90/1/5 94/1/5
f 96/2/5 94/2/5 95/2/5
f 97/1/5 96/1/5 95/1/5
f 98/1/5 90/1/5 96/1/5
f 98/1/5 96/1/5 97/1/5
f 99/3/6 100/3/6 101/3/6
f 101/3/6 100/3/6 102/3/6
f 103/3/6 104/3/6 107/3/6
f 104/2/6 105/2/6 108/2/6
f 107/3/6 104/3/6 108/3/6
f 108/2/6 105/2/6 109/2/6
f 106/3/6 107/3/6 110/3/6
f 107/1/6 108/1/6 111/1/6
f 110/3/6 107/3/6 111/3/6
f 108/3/6 109/3/6 112/3/6
f 111/1/6 108/1/6 112/1/6
f 112/3/6 109/3/6 113/3/6
f 110/1/6 111/1/6 114/1/6
f 111/1/6 112/1/6 114/1/6
f 112/1/6 113/1/6 114/1/6
f 114/1/6 113/1/6 115/1/6
f 114/2/6 115/2/6 116/2/6
f 116/2/6 115/2/6 117/2/6
f 116/1/6 117/1/6 118/1/6
f 117/2/6 115/2/6 119/2/6
f 118/1/6 117/1/6 119/1/6
f 118/2/6 119/2/6 120/2/6
f 119/2/6 115/2/6 120/2/6
f 115/1/6 113/1/6 121/1/6
f 120/2/6 115/2/6 121/2/6
f 118/2/6 120/2/6 122/2/6
f 120/1/6 121/1/6 123/1/6
f 122/2/6 120/2/6 123/2/6
f 121/1/6 113/1/6 124/1/6
f 123/1/6 121/1/6 124/1/6
f 122/1/6 123/1/6 124/1/6
f 124/1/6 113/1/6 125/1/6
f 122/1/6 124/1/6 126/1/6
f 124/2/6 125/2/6 126/2/6
f 126/2/6 125/2/6 127/2/6
f 122/1/6 126/1/6 128/1/6
f 126/1/6 127/1/6 128/1/6
f 128/1/6 127/1/6 129/1/6
