# MagicaVoxel @ Ephtracy

# group
o 

# material
mtllib LeftLeg.mtl
usemtl palette

# normals
vn -1 0 0
vn 1 0 0
vn 0 0 1
vn 0 0 -1
vn 0 -1 0
vn 0 1 0

# texcoords
vt 0.849609 0.5
vt 0.853516 0.5
vt 0.974609 0.5

# verts
v 9.68575e-08 0 -0.1
v 9.68575e-08 0 -0.4
v 9.68575e-08 0.1 -0.1
v 9.68575e-08 0.1 -0.4
v 9.68575e-08 0.4 -0.1
v 9.68575e-08 0.4 -0.5
v 9.68575e-08 0.5 -9.68575e-08
v 9.68575e-08 0.5 -0.1
v 9.68575e-08 0.5 -0.4
v 9.68575e-08 0.5 -0.5
v 9.68575e-08 0.7 -0.4
v 9.68575e-08 0.7 -0.5
v 9.68575e-08 0.9 -0.1
v 9.68575e-08 0.9 -0.2
v 9.68575e-08 0.9 -0.4
v 9.68575e-08 0.9 -0.5
v 9.68575e-08 1 -9.68575e-08
v 9.68575e-08 1 -0.1
v 9.68575e-08 1.1 -9.68575e-08
v 9.68575e-08 1.1 -0.2
v 9.68575e-08 1.1 -0.4
v 9.68575e-08 1.1 -0.5
v 0.1 0.1 -0.1
v 0.1 0.1 -0.4
v 0.1 0.4 -0.1
v 0.1 0.4 -0.4
v 0.4 0.1 -0.1
v 0.4 0.1 -0.3
v 0.4 0.1 -0.4
v 0.4 0.2 -0.2
v 0.4 0.2 -0.3
v 0.4 0.3 -0.1
v 0.4 0.3 -0.2
v 0.4 0.4 -0.1
v 0.4 0.4 -0.4
v 0.5 0.4 -0.1
v 0.5 0.4 -0.5
v 0.5 0.5 -9.68575e-08
v 0.5 0.5 -0.1
v 0.5 0.5 -0.3
v 0.5 0.5 -0.4
v 0.5 0.5 -0.5
v 0.5 0.6 -0.2
v 0.5 0.6 -0.3
v 0.5 0.7 -0.1
v 0.5 0.7 -0.2
v 0.5 0.8 -0.4
v 0.5 0.8 -0.5
v 0.5 0.9 -0.4
v 0.5 0.9 -0.5
v 0.5 1 -9.68575e-08
v 0.5 1 -0.2
v 0.5 1.1 -9.68575e-08
v 0.5 1.1 -0.2
v 0.5 1.1 -0.4
v 0.5 1.1 -0.5
v 0.6 0 -0.2
v 0.6 0 -0.3
v 0.6 0.1 -0.2
v 0.6 0.1 -0.3
v 0.7 0 -0.1
v 0.7 0 -0.2
v 0.7 0 -0.3
v 0.7 0 -0.4
v 0.7 0.1 -0.1
v 0.7 0.1 -0.2
v 0.7 0.1 -0.3
v 0.7 0.1 -0.4
v 9.68575e-08 0.5 -9.68575e-08
v 9.68575e-08 1 -9.68575e-08
v 9.68575e-08 1.1 -9.68575e-08
v 0.1 1 -9.68575e-08
v 0.1 1.1 -9.68575e-08
v 0.4 1 -9.68575e-08
v 0.4 1.1 -9.68575e-08
v 0.5 0.5 -9.68575e-08
v 0.5 1 -9.68575e-08
v 0.5 1.1 -9.68575e-08
v 9.68575e-08 0 -0.1
v 9.68575e-08 0.1 -0.1
v 9.68575e-08 0.4 -0.1
v 9.68575e-08 0.5 -0.1
v 0.1 0.1 -0.1
v 0.1 0.4 -0.1
v 0.3 0.1 -0.1
v 0.3 0.3 -0.1
v 0.4 0.1 -0.1
v 0.4 0.3 -0.1
v 0.4 0.4 -0.1
v 0.5 0.4 -0.1
v 0.5 0.5 -0.1
v 0.6 0 -0.1
v 0.6 0.1 -0.1
v 0.7 0 -0.1
v 0.7 0.1 -0.1
v 0.6 0 -0.3
v 0.6 0.1 -0.3
v 0.7 0 -0.3
v 0.7 0.1 -0.3
v 0.6 0 -0.2
v 0.6 0.1 -0.2
v 0.7 0 -0.2
v 0.7 0.1 -0.2
v 9.68575e-08 0 -0.4
v 9.68575e-08 0.1 -0.4
v 0.1 0.1 -0.4
v 0.1 0.4 -0.4
v 0.2 0 -0.4
v 0.2 0.2 -0.4
v 0.3 0 -0.4
v 0.3 0.2 -0.4
v 0.4 0.1 -0.4
v 0.4 0.4 -0.4
v 0.6 0 -0.4
v 0.6 0.1 -0.4
v 0.7 0 -0.4
v 0.7 0.1 -0.4
v 9.68575e-08 0.4 -0.5
v 9.68575e-08 0.5 -0.5
v 9.68575e-08 0.7 -0.5
v 9.68575e-08 0.9 -0.5
v 9.68575e-08 1.1 -0.5
v 0.1 0.5 -0.5
v 0.1 0.6 -0.5
v 0.1 0.9 -0.5
v 0.1 1.1 -0.5
v 0.2 0.6 -0.5
v 0.2 0.7 -0.5
v 0.3 0.5 -0.5
v 0.3 0.7 -0.5
v 0.3 0.9 -0.5
v 0.3 1.1 -0.5
v 0.4 0.7 -0.5
v 0.4 0.8 -0.5
v 0.5 0.4 -0.5
v 0.5 0.5 -0.5
v 0.5 0.8 -0.5
v 0.5 0.9 -0.5
v 0.5 1.1 -0.5
v 9.68575e-08 0 -0.1
v 0.6 0 -0.1
v 0.7 0 -0.1
v 0.6 0 -0.2
v 0.7 0 -0.2
v 0.2 0 -0.3
v 0.3 0 -0.3
v 0.6 0 -0.3
v 0.7 0 -0.3
v 9.68575e-08 0 -0.4
v 0.2 0 -0.4
v 0.3 0 -0.4
v 0.6 0 -0.4
v 0.7 0 -0.4
v 9.68575e-08 0.4 -0.1
v 0.1 0.4 -0.1
v 0.4 0.4 -0.1
v 0.5 0.4 -0.1
v 0.1 0.4 -0.4
v 0.4 0.4 -0.4
v 9.68575e-08 0.4 -0.5
v 0.5 0.4 -0.5
v 9.68575e-08 0.5 -9.68575e-08
v 0.5 0.5 -9.68575e-08
v 9.68575e-08 0.5 -0.1
v 0.5 0.5 -0.1
v 9.68575e-08 0.1 -0.1
v 0.1 0.1 -0.1
v 0.4 0.1 -0.1
v 0.6 0.1 -0.1
v 0.7 0.1 -0.1
v 0.6 0.1 -0.2
v 0.7 0.1 -0.2
v 0.4 0.1 -0.3
v 0.6 0.1 -0.3
v 0.7 0.1 -0.3
v 9.68575e-08 0.1 -0.4
v 0.1 0.1 -0.4
v 0.4 0.1 -0.4
v 0.6 0.1 -0.4
v 0.7 0.1 -0.4
v 9.68575e-08 1.1 -9.68575e-08
v 0.1 1.1 -9.68575e-08
v 0.4 1.1 -9.68575e-08
v 0.5 1.1 -9.68575e-08
v 9.68575e-08 1.1 -0.2
v 0.1 1.1 -0.2
v 0.4 1.1 -0.2
v 0.5 1.1 -0.2
v 9.68575e-08 1.1 -0.4
v 0.1 1.1 -0.4
v 0.3 1.1 -0.4
v 0.5 1.1 -0.4
v 9.68575e-08 1.1 -0.5
v 0.1 1.1 -0.5
v 0.3 1.1 -0.5
v 0.5 1.1 -0.5

# faces
f 3/1/1 2/1/1 1/1/1
f 4/1/1 2/1/1 3/1/1
f 8/1/1 6/1/1 5/1/1
f 9/1/1 6/1/1 8/1/1
f 10/1/1 6/1/1 9/1/1
f 11/1/1 8/1/1 7/1/1
f 11/1/1 9/1/1 8/1/1
f 11/2/1 10/2/1 9/2/1
f 12/2/1 10/2/1 11/2/1
f 13/1/1 11/1/1 7/1/1
f 13/1/1 12/1/1 11/1/1
f 14/1/1 12/1/1 13/1/1
f 15/1/1 12/1/1 14/1/1
f 16/1/1 12/1/1 15/1/1
f 17/1/1 13/1/1 7/1/1
f 18/2/1 14/2/1 13/2/1
f 18/1/1 13/1/1 17/1/1
f 19/2/1 18/2/1 17/2/1
f 20/1/1 15/1/1 14/1/1
f 20/2/1 18/2/1 19/2/1
f 20/2/1 14/2/1 18/2/1
f 21/2/1 16/2/1 15/2/1
f 21/1/1 15/1/1 20/1/1
f 22/2/1 16/2/1 21/2/1
f 25/1/1 24/1/1 23/1/1
f 26/1/1 24/1/1 25/1/1
f 27/2/2 28/2/2 30/2/2
f 28/1/2 29/1/2 31/1/2
f 30/2/2 28/2/2 31/2/2
f 27/2/2 30/2/2 32/2/2
f 30/1/2 31/1/2 33/1/2
f 32/2/2 30/2/2 33/2/2
f 32/1/2 33/1/2 34/1/2
f 31/1/2 29/1/2 35/1/2
f 34/1/2 33/1/2 35/1/2
f 33/1/2 31/1/2 35/1/2
f 36/1/2 37/1/2 39/1/2
f 39/1/2 37/1/2 40/1/2
f 40/1/2 37/1/2 41/1/2
f 41/1/2 37/1/2 42/1/2
f 39/2/2 40/2/2 43/2/2
f 40/1/2 41/1/2 44/1/2
f 43/2/2 40/2/2 44/2/2
f 38/1/2 39/1/2 45/1/2
f 39/2/2 43/2/2 45/2/2
f 43/1/2 44/1/2 46/1/2
f 45/2/2 43/2/2 46/2/2
f 44/1/2 41/1/2 47/1/2
f 46/1/2 44/1/2 47/1/2
f 45/1/2 46/1/2 47/1/2
f 41/2/2 42/2/2 47/2/2
f 47/2/2 42/2/2 48/2/2
f 45/1/2 47/1/2 49/1/2
f 47/1/2 48/1/2 49/1/2
f 49/1/2 48/1/2 50/1/2
f 38/1/2 45/1/2 51/1/2
f 45/1/2 49/1/2 51/1/2
f 51/1/2 49/1/2 52/1/2
f 51/2/2 52/2/2 53/2/2
f 52/1/2 49/1/2 54/1/2
f 53/2/2 52/2/2 54/2/2
f 49/2/2 50/2/2 55/2/2
f 54/1/2 49/1/2 55/1/2
f 55/2/2 50/2/2 56/2/2
f 57/1/2 58/1/2 59/1/2
f 59/1/2 58/1/2 60/1/2
f 61/3/2 62/3/2 65/3/2
f 65/3/2 62/3/2 66/3/2
f 63/3/2 64/3/2 67/3/2
f 67/3/2 64/3/2 68/3/2
f 72/1/3 70/1/3 69/1/3
f 72/2/3 71/2/3 70/2/3
f 73/2/3 71/2/3 72/2/3
f 74/1/3 72/1/3 69/1/3
f 74/1/3 73/1/3 72/1/3
f 75/1/3 73/1/3 74/1/3
f 76/1/3 74/1/3 69/1/3
f 77/2/3 75/2/3 74/2/3
f 77/1/3 74/1/3 76/1/3
f 78/2/3 75/2/3 77/2/3
f 83/1/3 80/1/3 79/1/3
f 84/1/3 82/1/3 81/1/3
f 85/1/3 83/1/3 79/1/3
f 85/1/3 84/1/3 83/1/3
f 86/1/3 84/1/3 85/1/3
f 87/1/3 85/1/3 79/1/3
f 87/2/3 86/2/3 85/2/3
f 88/1/3 84/1/3 86/1/3
f 88/2/3 86/2/3 87/2/3
f 89/1/3 82/1/3 84/1/3
f 89/1/3 84/1/3 88/1/3
f 90/1/3 82/1/3 89/1/3
f 91/1/3 82/1/3 90/1/3
f 92/1/3 87/1/3 79/1/3
f 93/1/3 87/1/3 92/1/3
f 94/3/3 93/3/3 92/3/3
f 95/3/3 93/3/3 94/3/3
f 98/3/3 97/3/3 96/3/3
f 99/3/3 97/3/3 98/3/3
f 100/3/4 101/3/4 102/3/4
f 102/3/4 101/3/4 103/3/4
f 104/1/4 105/1/4 106/1/4
f 104/1/4 106/1/4 108/1/4
f 106/1/4 107/1/4 108/1/4
f 108/1/4 107/1/4 109/1/4
f 108/2/4 109/2/4 110/2/4
f 109/1/4 107/1/4 111/1/4
f 110/2/4 109/2/4 111/2/4
f 110/1/4 111/1/4 112/1/4
f 111/1/4 107/1/4 113/1/4
f 112/1/4 111/1/4 113/1/4
f 110/1/4 112/1/4 114/1/4
f 114/1/4 112/1/4 115/1/4
f 114/3/4 115/3/4 116/3/4
f 116/3/4 115/3/4 117/3/4
f 118/1/4 119/1/4 123/1/4
f 119/2/4 120/2/4 123/2/4
f 123/2/4 120/2/4 124/2/4
f 121/2/4 122/2/4 125/2/4
f 120/1/4 121/1/4 125/1/4
f 125/2/4 122/2/4 126/2/4
f 124/2/4 120/2/4 127/2/4
f 123/1/4 124/1/4 127/1/4
f 125/1/4 126/1/4 128/1/4
f 127/2/4 120/2/4 128/2/4
f 120/1/4 125/1/4 128/1/4
f 123/1/4 127/1/4 129/1/4
f 118/1/4 123/1/4 129/1/4
f 127/1/4 128/1/4 129/1/4
f 128/1/4 126/1/4 130/1/4
f 129/1/4 128/1/4 130/1/4
f 130/1/4 126/1/4 131/1/4
f 131/1/4 126/1/4 132/1/4
f 129/2/4 130/2/4 133/2/4
f 130/1/4 131/1/4 133/1/4
f 133/1/4 131/1/4 134/1/4
f 118/1/4 129/1/4 135/1/4
f 129/2/4 133/2/4 136/2/4
f 135/1/4 129/1/4 136/1/4
f 133/2/4 134/2/4 136/2/4
f 134/1/4 131/1/4 137/1/4
f 136/2/4 134/2/4 137/2/4
f 131/2/4 132/2/4 138/2/4
f 137/1/4 131/1/4 138/1/4
f 138/2/4 132/2/4 139/2/4
f 143/1/5 141/1/5 140/1/5
f 143/3/5 142/3/5 141/3/5
f 144/3/5 142/3/5 143/3/5
f 145/1/5 143/1/5 140/1/5
f 146/1/5 143/1/5 145/1/5
f 147/1/5 143/1/5 146/1/5
f 149/1/5 145/1/5 140/1/5
f 150/2/5 146/2/5 145/2/5
f 150/1/5 145/1/5 149/1/5
f 151/1/5 147/1/5 146/1/5
f 151/2/5 146/2/5 150/2/5
f 152/3/5 148/3/5 147/3/5
f 152/1/5 147/1/5 151/1/5
f 153/3/5 148/3/5 152/3/5
f 158/1/5 155/1/5 154/1/5
f 159/1/5 157/1/5 156/1/5
f 160/1/5 158/1/5 154/1/5
f 160/1/5 159/1/5 158/1/5
f 161/1/5 157/1/5 159/1/5
f 161/1/5 159/1/5 160/1/5
f 164/1/5 163/1/5 162/1/5
f 165/1/5 163/1/5 164/1/5
f 168/1/6 169/1/6 171/1/6
f 169/3/6 170/3/6 171/3/6
f 171/3/6 170/3/6 172/3/6
f 168/1/6 171/1/6 173/1/6
f 173/1/6 171/1/6 174/1/6
f 166/1/6 167/1/6 176/1/6
f 176/1/6 167/1/6 177/1/6
f 173/1/6 174/1/6 178/1/6
f 174/3/6 175/3/6 179/3/6
f 178/1/6 174/1/6 179/1/6
f 179/3/6 175/3/6 180/3/6
f 181/2/6 182/2/6 185/2/6
f 182/1/6 183/1/6 186/1/6
f 185/2/6 182/2/6 186/2/6
f 183/2/6 184/2/6 187/2/6
f 186/1/6 183/1/6 187/1/6
f 187/2/6 184/2/6 188/2/6
f 185/1/6 186/1/6 189/1/6
f 186/1/6 187/1/6 189/1/6
f 187/1/6 188/1/6 189/1/6
f 189/1/6 188/1/6 190/1/6
f 190/1/6 188/1/6 191/1/6
f 191/1/6 188/1/6 192/1/6
f 189/2/6 190/2/6 193/2/6
f 190/1/6 191/1/6 194/1/6
f 193/2/6 190/2/6 194/2/6
f 191/2/6 192/2/6 195/2/6
f 194/1/6 191/1/6 195/1/6
f 195/2/6 192/2/6 196/2/6
