# MagicaVoxel @ Ephtracy

# group
o 

# material
mtllib RightLeg.mtl
usemtl palette

# normals
vn -1 0 0
vn 1 0 0
vn 0 0 1
vn 0 0 -1
vn 0 -1 0
vn 0 1 0

# texcoords
vt 0.849609 0.5
vt 0.853516 0.5
vt 0.974609 0.5

# verts
v 9.68575e-08 0 0.5
v 9.68575e-08 0 0.2
v 9.68575e-08 0.1 0.5
v 9.68575e-08 0.1 0.2
v 9.68575e-08 0.4 0.6
v 9.68575e-08 0.4 0.2
v 9.68575e-08 0.5 0.3
v 9.68575e-08 0.5 0.2
v 9.68575e-08 0.5 0.0999998
v 9.68575e-08 0.6 0.3
v 9.68575e-08 0.6 0.2
v 9.68575e-08 0.7 0.2
v 9.68575e-08 0.7 0.0999998
v 9.68575e-08 0.8 0.6
v 9.68575e-08 0.8 0.4
v 9.68575e-08 0.9 0.6
v 9.68575e-08 0.9 0.4
v 9.68575e-08 0.9 0.3
v 9.68575e-08 1 0.4
v 9.68575e-08 1 0.3
v 9.68575e-08 1.1 0.6
v 9.68575e-08 1.1 0.0999998
v 0.1 0.1 0.5
v 0.1 0.1 0.2
v 0.1 0.2 0.5
v 0.1 0.2 0.3
v 0.1 0.3 0.5
v 0.1 0.3 0.3
v 0.1 0.4 0.5
v 0.1 0.4 0.2
v 0.4 0.1 0.5
v 0.4 0.1 0.2
v 0.4 0.2 0.3
v 0.4 0.2 0.2
v 0.4 0.3 0.4
v 0.4 0.3 0.3
v 0.4 0.4 0.5
v 0.4 0.4 0.4
v 0.4 0.4 0.2
v 0.5 0.4 0.6
v 0.5 0.4 0.2
v 0.5 0.5 0.2
v 0.5 0.5 0.0999998
v 0.5 0.6 0.6
v 0.5 0.6 0.5
v 0.5 0.6 0.4
v 0.5 0.6 0.2
v 0.5 0.7 0.4
v 0.5 0.7 0.3
v 0.5 0.8 0.3
v 0.5 0.8 0.2
v 0.5 0.9 0.6
v 0.5 0.9 0.5
v 0.5 0.9 0.3
v 0.5 0.9 0.2
v 0.5 1 0.4
v 0.5 1 0.3
v 0.5 1.1 0.6
v 0.5 1.1 0.4
v 0.5 1.1 0.2
v 0.5 1.1 0.0999998
v 0.6 0 0.4
v 0.6 0 0.3
v 0.6 0.1 0.4
v 0.6 0.1 0.3
v 0.7 0 0.5
v 0.7 0 0.4
v 0.7 0 0.3
v 0.7 0 0.2
v 0.7 0.1 0.5
v 0.7 0.1 0.4
v 0.7 0.1 0.3
v 0.7 0.1 0.2
v 9.68575e-08 0.4 0.6
v 9.68575e-08 0.8 0.6
v 9.68575e-08 0.9 0.6
v 9.68575e-08 1.1 0.6
v 0.1 0.7 0.6
v 0.1 0.8 0.6
v 0.1 1 0.6
v 0.1 1.1 0.6
v 0.2 0.7 0.6
v 0.2 0.9 0.6
v 0.3 1 0.6
v 0.3 1.1 0.6
v 0.4 0.6 0.6
v 0.4 0.9 0.6
v 0.5 0.4 0.6
v 0.5 0.6 0.6
v 0.5 0.9 0.6
v 0.5 1.1 0.6
v 9.68575e-08 0 0.5
v 9.68575e-08 0.1 0.5
v 0.1 0.1 0.5
v 0.1 0.2 0.5
v 0.1 0.3 0.5
v 0.1 0.4 0.5
v 0.2 0 0.5
v 0.2 0.2 0.5
v 0.2 0.3 0.5
v 0.3 0.1 0.5
v 0.3 0.2 0.5
v 0.4 0 0.5
v 0.4 0.1 0.5
v 0.4 0.4 0.5
v 0.6 0 0.5
v 0.6 0.1 0.5
v 0.7 0 0.5
v 0.7 0.1 0.5
v 0.6 0 0.3
v 0.6 0.1 0.3
v 0.7 0 0.3
v 0.7 0.1 0.3
v 0.6 0 0.4
v 0.6 0.1 0.4
v 0.7 0 0.4
v 0.7 0.1 0.4
v 9.68575e-08 0 0.2
v 9.68575e-08 0.1 0.2
v 9.68575e-08 0.4 0.2
v 9.68575e-08 0.5 0.2
v 0.1 0.1 0.2
v 0.1 0.4 0.2
v 0.1 0.5 0.2
v 0.3 0.2 0.2
v 0.3 0.4 0.2
v 0.4 0.1 0.2
v 0.4 0.2 0.2
v 0.4 0.4 0.2
v 0.5 0.4 0.2
v 0.5 0.5 0.2
v 0.6 0 0.2
v 0.6 0.1 0.2
v 0.7 0 0.2
v 0.7 0.1 0.2
v 9.68575e-08 0.5 0.0999998
v 9.68575e-08 0.7 0.0999998
v 9.68575e-08 1.1 0.0999998
v 0.1 0.5 0.0999998
v 0.1 0.7 0.0999998
v 0.5 0.5 0.0999998
v 0.5 1.1 0.0999998
v 9.68575e-08 0 0.5
v 0.2 0 0.5
v 0.4 0 0.5
v 0.6 0 0.5
v 0.7 0 0.5
v 0.2 0 0.4
v 0.4 0 0.4
v 0.6 0 0.4
v 0.7 0 0.4
v 0.6 0 0.3
v 0.7 0 0.3
v 9.68575e-08 0 0.2
v 0.6 0 0.2
v 0.7 0 0.2
v 9.68575e-08 0.4 0.6
v 0.5 0.4 0.6
v 0.1 0.4 0.5
v 0.4 0.4 0.5
v 0.4 0.4 0.4
v 9.68575e-08 0.4 0.2
v 0.1 0.4 0.2
v 0.4 0.4 0.2
v 0.5 0.4 0.2
v 9.68575e-08 0.5 0.2
v 0.1 0.5 0.2
v 0.5 0.5 0.2
v 9.68575e-08 0.5 0.0999998
v 0.1 0.5 0.0999998
v 0.5 0.5 0.0999998
v 9.68575e-08 0.1 0.5
v 0.1 0.1 0.5
v 0.4 0.1 0.5
v 0.6 0.1 0.5
v 0.7 0.1 0.5
v 0.6 0.1 0.4
v 0.7 0.1 0.4
v 0.6 0.1 0.3
v 0.7 0.1 0.3
v 9.68575e-08 0.1 0.2
v 0.1 0.1 0.2
v 0.4 0.1 0.2
v 0.6 0.1 0.2
v 0.7 0.1 0.2
v 9.68575e-08 1.1 0.6
v 0.1 1.1 0.6
v 0.3 1.1 0.6
v 0.5 1.1 0.6
v 0.1 1.1 0.5
v 0.3 1.1 0.5
v 0.4 1.1 0.4
v 0.5 1.1 0.4
v 0.4 1.1 0.2
v 0.5 1.1 0.2
v 9.68575e-08 1.1 0.0999998
v 0.5 1.1 0.0999998

# faces
f 3/1/1 2/1/1 1/1/1
f 4/1/1 2/1/1 3/1/1
f 7/1/1 6/1/1 5/1/1
f 8/1/1 6/1/1 7/1/1
f 10/2/1 8/2/1 7/2/1
f 10/2/1 9/2/1 8/2/1
f 10/1/1 7/1/1 5/1/1
f 11/2/1 9/2/1 10/2/1
f 12/1/1 11/1/1 10/1/1
f 12/2/1 9/2/1 11/2/1
f 13/2/1 9/2/1 12/2/1
f 14/1/1 10/1/1 5/1/1
f 14/1/1 12/1/1 10/1/1
f 14/1/1 13/1/1 12/1/1
f 15/1/1 13/1/1 14/1/1
f 16/2/1 15/2/1 14/2/1
f 17/1/1 13/1/1 15/1/1
f 17/2/1 15/2/1 16/2/1
f 18/1/1 13/1/1 17/1/1
f 19/1/1 17/1/1 16/1/1
f 19/2/1 18/2/1 17/2/1
f 20/1/1 13/1/1 18/1/1
f 20/2/1 18/2/1 19/2/1
f 21/1/1 19/1/1 16/1/1
f 21/1/1 20/1/1 19/1/1
f 22/1/1 13/1/1 20/1/1
f 22/1/1 20/1/1 21/1/1
f 25/1/1 24/1/1 23/1/1
f 26/1/1 24/1/1 25/1/1
f 27/2/1 26/2/1 25/2/1
f 28/1/1 24/1/1 26/1/1
f 28/2/1 26/2/1 27/2/1
f 29/1/1 28/1/1 27/1/1
f 30/1/1 24/1/1 28/1/1
f 30/1/1 28/1/1 29/1/1
f 31/1/2 32/1/2 33/1/2
f 33/1/2 32/1/2 34/1/2
f 31/1/2 33/1/2 35/1/2
f 33/2/2 34/2/2 36/2/2
f 35/1/2 33/1/2 36/1/2
f 31/1/2 35/1/2 37/1/2
f 35/2/2 36/2/2 38/2/2
f 37/1/2 35/1/2 38/1/2
f 36/2/2 34/2/2 39/2/2
f 38/2/2 36/2/2 39/2/2
f 40/1/2 41/1/2 42/1/2
f 40/1/2 42/1/2 44/1/2
f 42/1/2 43/1/2 44/1/2
f 44/1/2 43/1/2 45/1/2
f 45/1/2 43/1/2 46/1/2
f 46/1/2 43/1/2 47/1/2
f 45/1/2 46/1/2 48/1/2
f 46/2/2 47/2/2 48/2/2
f 48/2/2 47/2/2 49/2/2
f 48/1/2 49/1/2 50/1/2
f 49/2/2 47/2/2 50/2/2
f 47/1/2 43/1/2 51/1/2
f 50/2/2 47/2/2 51/2/2
f 44/2/2 45/2/2 52/2/2
f 48/1/2 50/1/2 53/1/2
f 52/2/2 45/2/2 53/2/2
f 45/1/2 48/1/2 53/1/2
f 50/1/2 51/1/2 53/1/2
f 53/1/2 51/1/2 54/1/2
f 51/1/2 43/1/2 55/1/2
f 54/1/2 51/1/2 55/1/2
f 53/1/2 54/1/2 56/1/2
f 52/1/2 53/1/2 56/1/2
f 54/2/2 55/2/2 57/2/2
f 56/1/2 54/1/2 57/1/2
f 52/1/2 56/1/2 58/1/2
f 56/2/2 57/2/2 59/2/2
f 58/1/2 56/1/2 59/1/2
f 55/1/2 43/1/2 60/1/2
f 59/2/2 57/2/2 60/2/2
f 57/2/2 55/2/2 60/2/2
f 60/1/2 43/1/2 61/1/2
f 62/1/2 63/1/2 64/1/2
f 64/1/2 63/1/2 65/1/2
f 66/3/2 67/3/2 70/3/2
f 70/3/2 67/3/2 71/3/2
f 68/3/2 69/3/2 72/3/2
f 72/3/2 69/3/2 73/3/2
f 78/1/3 75/1/3 74/1/3
f 79/2/3 76/2/3 75/2/3
f 79/1/3 75/1/3 78/1/3
f 80/1/3 77/1/3 76/1/3
f 81/1/3 77/1/3 80/1/3
f 82/1/3 78/1/3 74/1/3
f 82/2/3 79/2/3 78/2/3
f 83/2/3 76/2/3 79/2/3
f 83/2/3 79/2/3 82/2/3
f 83/1/3 80/1/3 76/1/3
f 84/2/3 81/2/3 80/2/3
f 84/1/3 80/1/3 83/1/3
f 84/1/3 83/1/3 82/1/3
f 85/2/3 81/2/3 84/2/3
f 86/1/3 82/1/3 74/1/3
f 86/1/3 84/1/3 82/1/3
f 86/1/3 85/1/3 84/1/3
f 87/1/3 85/1/3 86/1/3
f 88/1/3 86/1/3 74/1/3
f 89/2/3 87/2/3 86/2/3
f 89/1/3 86/1/3 88/1/3
f 90/1/3 85/1/3 87/1/3
f 90/2/3 87/2/3 89/2/3
f 91/1/3 85/1/3 90/1/3
f 94/1/3 93/1/3 92/1/3
f 98/1/3 94/1/3 92/1/3
f 98/1/3 95/1/3 94/1/3
f 99/2/3 96/2/3 95/2/3
f 99/1/3 95/1/3 98/1/3
f 100/1/3 97/1/3 96/1/3
f 100/2/3 96/2/3 99/2/3
f 101/2/3 99/2/3 98/2/3
f 102/1/3 100/1/3 99/1/3
f 102/2/3 99/2/3 101/2/3
f 103/2/3 101/2/3 98/2/3
f 104/1/3 102/1/3 101/1/3
f 104/2/3 101/2/3 103/2/3
f 105/1/3 97/1/3 100/1/3
f 105/1/3 102/1/3 104/1/3
f 105/1/3 100/1/3 102/1/3
f 106/1/3 104/1/3 103/1/3
f 107/1/3 104/1/3 106/1/3
f 108/3/3 107/3/3 106/3/3
f 109/3/3 107/3/3 108/3/3
f 112/3/3 111/3/3 110/3/3
f 113/3/3 111/3/3 112/3/3
f 114/3/4 115/3/4 116/3/4
f 116/3/4 115/3/4 117/3/4
f 118/1/4 119/1/4 122/1/4
f 120/1/4 121/1/4 123/1/4
f 123/1/4 121/1/4 124/1/4
f 122/1/4 123/1/4 125/1/4
f 123/1/4 124/1/4 125/1/4
f 125/1/4 124/1/4 126/1/4
f 118/1/4 122/1/4 127/1/4
f 122/1/4 125/1/4 127/1/4
f 125/2/4 126/2/4 128/2/4
f 127/1/4 125/1/4 128/1/4
f 126/1/4 124/1/4 129/1/4
f 128/2/4 126/2/4 129/2/4
f 129/1/4 124/1/4 130/1/4
f 130/1/4 124/1/4 131/1/4
f 118/1/4 127/1/4 132/1/4
f 132/1/4 127/1/4 133/1/4
f 132/3/4 133/3/4 134/3/4
f 134/3/4 133/3/4 135/3/4
f 136/2/4 137/2/4 139/2/4
f 137/1/4 138/1/4 140/1/4
f 139/2/4 137/2/4 140/2/4
f 139/1/4 140/1/4 141/1/4
f 140/1/4 138/1/4 142/1/4
f 141/1/4 140/1/4 142/1/4
f 148/1/5 144/1/5 143/1/5
f 148/2/5 145/2/5 144/2/5
f 149/1/5 146/1/5 145/1/5
f 149/2/5 145/2/5 148/2/5
f 150/3/5 147/3/5 146/3/5
f 150/1/5 146/1/5 149/1/5
f 151/3/5 147/3/5 150/3/5
f 152/1/5 149/1/5 148/1/5
f 152/1/5 150/1/5 149/1/5
f 154/1/5 148/1/5 143/1/5
f 154/1/5 152/1/5 148/1/5
f 155/3/5 153/3/5 152/3/5
f 155/1/5 152/1/5 154/1/5
f 156/3/5 153/3/5 155/3/5
f 159/1/5 158/1/5 157/1/5
f 160/1/5 158/1/5 159/1/5
f 161/1/5 158/1/5 160/1/5
f 162/1/5 159/1/5 157/1/5
f 163/1/5 159/1/5 162/1/5
f 164/1/5 158/1/5 161/1/5
f 165/1/5 158/1/5 164/1/5
f 169/2/5 167/2/5 166/2/5
f 170/1/5 168/1/5 167/1/5
f 170/2/5 167/2/5 169/2/5
f 171/1/5 168/1/5 170/1/5
f 174/1/6 175/1/6 177/1/6
f 175/3/6 176/3/6 177/3/6
f 177/3/6 176/3/6 178/3/6
f 174/1/6 177/1/6 179/1/6
f 172/1/6 173/1/6 181/1/6
f 181/1/6 173/1/6 182/1/6
f 174/1/6 179/1/6 183/1/6
f 179/3/6 180/3/6 184/3/6
f 183/1/6 179/1/6 184/1/6
f 184/3/6 180/3/6 185/3/6
f 186/1/6 187/1/6 190/1/6
f 187/2/6 188/2/6 190/2/6
f 188/1/6 189/1/6 191/1/6
f 190/2/6 188/2/6 191/2/6
f 190/1/6 191/1/6 192/1/6
f 191/1/6 189/1/6 192/1/6
f 192/1/6 189/1/6 193/1/6
f 190/1/6 192/1/6 194/1/6
f 192/2/6 193/2/6 194/2/6
f 194/2/6 193/2/6 195/2/6
f 186/1/6 190/1/6 196/1/6
f 190/1/6 194/1/6 196/1/6
f 194/1/6 195/1/6 196/1/6
f 196/1/6 195/1/6 197/1/6
