# MagicaVoxel @ Ephtracy

# group
o 

# material
mtllib Tail.mtl
usemtl palette

# normals
vn -1 0 0
vn 1 0 0
vn 0 0 1
vn 0 0 -1
vn 0 -1 0
vn 0 1 0

# texcoords
vt 0.849609 0.5
vt 0.853516 0.5

# verts
v -1.4 0.8 0.0999997
v -1.4 0.8 -0.1
v -1.4 0.9 0.0999997
v -1.4 0.9 -0.1
v -1.3 0.8 0.2
v -1.3 0.8 0.0999997
v -1.3 0.8 -0.1
v -1.3 0.8 -0.2
v -1.3 0.9 0.2
v -1.3 0.9 0.0999997
v -1.3 0.9 -0.1
v -1.3 0.9 -0.2
v -1.3 1 0.0999997
v -1.3 1 -0.1
v -1.1 0.9 0.2
v -1.1 0.9 0.0999997
v -1.1 0.9 -0.1
v -1.1 0.9 -0.2
v -1.1 1 0.2
v -1.1 1 0.0999997
v -1.1 1 -2.98023e-07
v -1.1 1 -0.1
v -1.1 1 -0.2
v -1.1 1.1 0.0999997
v -1.1 1.1 -2.98023e-07
v -1.1 1.1 -0.1
v -1 1 0.2
v -1 1 0.0999997
v -1 1.1 0.2
v -1 1.1 0.0999997
v -1 1.1 -2.98023e-07
v -1 1.1 -0.1
v -1 1.2 0.0999997
v -1 1.2 -2.98023e-07
v -1 1.2 -0.1
v -0.9 1 -0.1
v -0.9 1 -0.2
v -0.9 1.1 0.2
v -0.9 1.1 0.0999997
v -0.9 1.1 -0.1
v -0.9 1.1 -0.2
v -0.9 1.2 0.2
v -0.9 1.2 0.0999997
v -0.9 1.2 -2.98023e-07
v -0.9 1.2 -0.1
v -0.9 1.3 0.0999997
v -0.9 1.3 -2.98023e-07
v -0.9 1.3 -0.1
v -0.8 1.1 -0.1
v -0.8 1.1 -0.2
v -0.8 1.2 0.2
v -0.8 1.2 0.0999997
v -0.8 1.2 -0.1
v -0.8 1.2 -0.2
v -0.8 1.3 0.2
v -0.8 1.3 0.0999997
v -0.8 1.3 -2.98023e-07
v -0.8 1.3 -0.1
v -0.8 1.4 0.0999997
v -0.8 1.4 -0.1
v -0.7 1.2 -0.1
v -0.7 1.2 -0.2
v -0.7 1.4 0.0999997
v -0.7 1.4 -0.1
v -0.7 1.4 -0.2
v -0.7 1.5 0.0999997
v -0.7 1.5 -0.1
v -0.6 1.3 0.2
v -0.6 1.3 0.0999997
v -0.6 1.4 0.2
v -0.6 1.4 0.0999997
v -0.6 1.4 -0.1
v -0.6 1.4 -0.2
v -0.6 1.5 0.2
v -0.6 1.5 0.0999997
v -0.6 1.5 -0.1
v -0.6 1.5 -0.2
v -0.8 0.8 0.2
v -0.8 0.8 0.0999997
v -0.8 0.8 -0.1
v -0.8 0.8 -0.2
v -0.8 0.9 0.2
v -0.8 0.9 0.0999997
v -0.8 0.9 -0.1
v -0.8 0.9 -0.2
v -0.6 0.9 0.2
v -0.6 0.9 -2.98023e-07
v -0.6 0.9 -0.2
v -0.6 1 0.2
v -0.6 1 -2.98023e-07
v -0.6 1 -0.2
v -0.4 1 0.2
v -0.4 1 0.0999997
v -0.4 1 -2.98023e-07
v -0.4 1 -0.2
v -0.4 1.1 0.2
v -0.4 1.1 0.0999997
v -0.4 1.1 -2.98023e-07
v -0.4 1.1 -0.2
v -0.2 1.1 0.2
v -0.2 1.1 -0.2
v -0.2 1.2 0.2
v -0.2 1.2 0.0999997
v -0.2 1.2 -0.1
v -0.2 1.2 -0.2
v -0.2 1.4 0.0999997
v -0.2 1.4 -0.1
v -0.2 1.5 0.2
v -0.2 1.5 -0.2
v -1.3 0.8 0.2
v -1.3 0.9 0.2
v -1.1 0.8 0.2
v -1.1 0.9 0.2
v -1.1 1 0.2
v -1 0.8 0.2
v -1 0.9 0.2
v -1 1 0.2
v -1 1.1 0.2
v -0.9 1 0.2
v -0.9 1.1 0.2
v -0.9 1.2 0.2
v -0.8 0.8 0.2
v -0.8 0.9 0.2
v -0.8 1.2 0.2
v -0.8 1.3 0.2
v -0.6 0.9 0.2
v -0.6 1 0.2
v -0.6 1.1 0.2
v -0.6 1.3 0.2
v -0.6 1.4 0.2
v -0.6 1.5 0.2
v -0.5 1.4 0.2
v -0.5 1.5 0.2
v -0.4 1 0.2
v -0.4 1.1 0.2
v -0.4 1.4 0.2
v -0.3 1.1 0.2
v -0.3 1.2 0.2
v -0.3 1.4 0.2
v -0.3 1.5 0.2
v -0.2 1.1 0.2
v -0.2 1.2 0.2
v -0.2 1.5 0.2
v -1.4 0.8 0.0999997
v -1.4 0.9 0.0999997
v -1.3 0.8 0.0999997
v -1.3 0.9 0.0999997
v -1.3 1 0.0999997
v -1.1 0.9 0.0999997
v -1.1 1 0.0999997
v -1.1 1.1 0.0999997
v -1 1 0.0999997
v -1 1.1 0.0999997
v -1 1.2 0.0999997
v -0.9 1.1 0.0999997
v -0.9 1.2 0.0999997
v -0.9 1.3 0.0999997
v -0.8 1.2 0.0999997
v -0.8 1.3 0.0999997
v -0.8 1.4 0.0999997
v -0.7 1.3 0.0999997
v -0.7 1.4 0.0999997
v -0.7 1.5 0.0999997
v -0.6 1.3 0.0999997
v -0.6 1.4 0.0999997
v -0.6 1.5 0.0999997
v -1.4 0.8 -0.1
v -1.4 0.9 -0.1
v -1.3 0.8 -0.1
v -1.3 0.9 -0.1
v -1.3 1 -0.1
v -1.2 0.9 -0.1
v -1.1 0.9 -0.1
v -1.1 1 -0.1
v -1.1 1.1 -0.1
v -1 1 -0.1
v -1 1.1 -0.1
v -1 1.2 -0.1
v -0.9 1 -0.1
v -0.9 1.1 -0.1
v -0.9 1.2 -0.1
v -0.9 1.3 -0.1
v -0.8 1.1 -0.1
v -0.8 1.2 -0.1
v -0.8 1.3 -0.1
v -0.8 1.4 -0.1
v -0.7 1.2 -0.1
v -0.7 1.4 -0.1
v -0.7 1.5 -0.1
v -0.6 1.4 -0.1
v -0.6 1.5 -0.1
v -1.3 0.8 -0.2
v -1.3 0.9 -0.2
v -1.2 0.8 -0.2
v -1.2 0.9 -0.2
v -1.1 0.8 -0.2
v -1.1 0.9 -0.2
v -1.1 1 -0.2
v -1 0.9 -0.2
v -1 1 -0.2
v -0.9 1 -0.2
v -0.9 1.1 -0.2
v -0.8 0.8 -0.2
v -0.8 0.9 -0.2
v -0.8 1.1 -0.2
v -0.8 1.2 -0.2
v -0.7 0.9 -0.2
v -0.7 1 -0.2
v -0.7 1.2 -0.2
v -0.7 1.4 -0.2
v -0.6 0.9 -0.2
v -0.6 1 -0.2
v -0.6 1.1 -0.2
v -0.6 1.4 -0.2
v -0.6 1.5 -0.2
v -0.4 1 -0.2
v -0.4 1.1 -0.2
v -0.4 1.2 -0.2
v -0.4 1.3 -0.2
v -0.4 1.5 -0.2
v -0.3 1.1 -0.2
v -0.3 1.2 -0.2
v -0.3 1.3 -0.2
v -0.3 1.5 -0.2
v -0.2 1.1 -0.2
v -0.2 1.2 -0.2
v -0.2 1.5 -0.2
v -1.3 0.8 0.2
v -1.1 0.8 0.2
v -1 0.8 0.2
v -0.8 0.8 0.2
v -1.4 0.8 0.0999997
v -1.3 0.8 0.0999997
v -1.1 0.8 0.0999997
v -1 0.8 0.0999997
v -0.8 0.8 0.0999997
v -1 0.8 -2.98023e-07
v -0.9 0.8 -2.98023e-07
v -1.4 0.8 -0.1
v -1.3 0.8 -0.1
v -1.2 0.8 -0.1
v -1.1 0.8 -0.1
v -0.9 0.8 -0.1
v -0.8 0.8 -0.1
v -1.3 0.8 -0.2
v -1.2 0.8 -0.2
v -1.1 0.8 -0.2
v -0.8 0.8 -0.2
v -0.8 0.9 0.2
v -0.6 0.9 0.2
v -0.8 0.9 0.0999997
v -0.7 0.9 -2.98023e-07
v -0.6 0.9 -2.98023e-07
v -0.8 0.9 -0.1
v -0.8 0.9 -0.2
v -0.7 0.9 -0.2
v -0.6 0.9 -0.2
v -0.6 1 0.2
v -0.4 1 0.2
v -0.5 1 0.0999997
v -0.4 1 0.0999997
v -0.6 1 -2.98023e-07
v -0.5 1 -2.98023e-07
v -0.4 1 -2.98023e-07
v -0.6 1 -0.2
v -0.4 1 -0.2
v -0.4 1.1 0.2
v -0.3 1.1 0.2
v -0.2 1.1 0.2
v -0.4 1.1 0.0999997
v -0.3 1.1 0.0999997
v -0.4 1.1 -2.98023e-07
v -0.3 1.1 -2.98023e-07
v -0.4 1.1 -0.2
v -0.3 1.1 -0.2
v -0.2 1.1 -0.2
v -1.3 0.9 0.2
v -1.1 0.9 0.2
v -1.4 0.9 0.0999997
v -1.3 0.9 0.0999997
v -1.1 0.9 0.0999997
v -1.4 0.9 -0.1
v -1.3 0.9 -0.1
v -1.2 0.9 -0.1
v -1.1 0.9 -0.1
v -1.3 0.9 -0.2
v -1.2 0.9 -0.2
v -1.1 0.9 -0.2
v -1.1 1 0.2
v -1 1 0.2
v -1.3 1 0.0999997
v -1.1 1 0.0999997
v -1 1 0.0999997
v -1.1 1 -2.98023e-07
v -1.3 1 -0.1
v -1.1 1 -0.1
v -1 1 -0.1
v -0.9 1 -0.1
v -1.1 1 -0.2
v -1 1 -0.2
v -0.9 1 -0.2
v -1 1.1 0.2
v -0.9 1.1 0.2
v -1.1 1.1 0.0999997
v -1 1.1 0.0999997
v -0.9 1.1 0.0999997
v -1.1 1.1 -2.98023e-07
v -1 1.1 -2.98023e-07
v -1.1 1.1 -0.1
v -1 1.1 -0.1
v -0.9 1.1 -0.1
v -0.8 1.1 -0.1
v -0.9 1.1 -0.2
v -0.8 1.1 -0.2
v -0.9 1.2 0.2
v -0.8 1.2 0.2
v -1 1.2 0.0999997
v -0.9 1.2 0.0999997
v -0.8 1.2 0.0999997
v -1 1.2 -2.98023e-07
v -0.9 1.2 -2.98023e-07
v -1 1.2 -0.1
v -0.9 1.2 -0.1
v -0.8 1.2 -0.1
v -0.7 1.2 -0.1
v -0.8 1.2 -0.2
v -0.7 1.2 -0.2
v -0.8 1.3 0.2
v -0.6 1.3 0.2
v -0.9 1.3 0.0999997
v -0.8 1.3 0.0999997
v -0.7 1.3 0.0999997
v -0.6 1.3 0.0999997
v -0.9 1.3 -2.98023e-07
v -0.8 1.3 -2.98023e-07
v -0.9 1.3 -0.1
v -0.8 1.3 -0.1
v -0.8 1.4 0.0999997
v -0.7 1.4 0.0999997
v -0.8 1.4 -0.1
v -0.7 1.4 -0.1
v -0.6 1.4 -0.1
v -0.7 1.4 -0.2
v -0.6 1.4 -0.2
v -0.6 1.5 0.2
v -0.5 1.5 0.2
v -0.3 1.5 0.2
v -0.2 1.5 0.2
v -0.7 1.5 0.0999997
v -0.6 1.5 0.0999997
v -0.5 1.5 0.0999997
v -0.3 1.5 0.0999997
v -0.7 1.5 -0.1
v -0.6 1.5 -0.1
v -0.5 1.5 -0.1
v -0.4 1.5 -0.1
v -0.3 1.5 -0.1
v -0.6 1.5 -0.2
v -0.4 1.5 -0.2
v -0.3 1.5 -0.2
v -0.2 1.5 -0.2

# faces
f 3/1/1 2/1/1 1/1/1
f 4/1/1 2/1/1 3/1/1
f 9/1/1 6/1/1 5/1/1
f 10/1/1 6/1/1 9/1/1
f 11/1/1 8/1/1 7/1/1
f 12/1/1 8/1/1 11/1/1
f 13/1/1 11/1/1 10/1/1
f 14/1/1 11/1/1 13/1/1
f 19/2/1 16/2/1 15/2/1
f 20/2/1 16/2/1 19/2/1
f 22/2/1 18/2/1 17/2/1
f 23/2/1 18/2/1 22/2/1
f 24/1/1 21/1/1 20/1/1
f 25/2/1 22/2/1 21/2/1
f 25/1/1 21/1/1 24/1/1
f 26/2/1 22/2/1 25/2/1
f 29/1/1 28/1/1 27/1/1
f 30/1/1 28/1/1 29/1/1
f 33/1/1 31/1/1 30/1/1
f 34/2/1 32/2/1 31/2/1
f 34/1/1 31/1/1 33/1/1
f 35/2/1 32/2/1 34/2/1
f 40/2/1 37/2/1 36/2/1
f 41/2/1 37/2/1 40/2/1
f 42/2/1 39/2/1 38/2/1
f 43/2/1 39/2/1 42/2/1
f 46/2/1 44/2/1 43/2/1
f 47/1/1 45/1/1 44/1/1
f 47/2/1 44/2/1 46/2/1
f 48/1/1 45/1/1 47/1/1
f 53/2/1 50/2/1 49/2/1
f 54/2/1 50/2/1 53/2/1
f 55/1/1 52/1/1 51/1/1
f 56/1/1 52/1/1 55/1/1
f 59/1/1 58/1/1 57/1/1
f 59/1/1 57/1/1 56/1/1
f 60/1/1 58/1/1 59/1/1
f 64/1/1 62/1/1 61/1/1
f 65/1/1 62/1/1 64/1/1
f 66/1/1 64/1/1 63/1/1
f 67/1/1 64/1/1 66/1/1
f 70/2/1 69/2/1 68/2/1
f 71/2/1 69/2/1 70/2/1
f 74/1/1 71/1/1 70/1/1
f 75/1/1 71/1/1 74/1/1
f 76/1/1 73/1/1 72/1/1
f 77/1/1 73/1/1 76/1/1
f 78/1/2 79/1/2 82/1/2
f 79/2/2 80/2/2 83/2/2
f 82/1/2 79/1/2 83/1/2
f 80/1/2 81/1/2 84/1/2
f 83/2/2 80/2/2 84/2/2
f 84/1/2 81/1/2 85/1/2
f 86/1/2 87/1/2 89/1/2
f 87/2/2 88/2/2 90/2/2
f 89/1/2 87/1/2 90/1/2
f 90/2/2 88/2/2 91/2/2
f 92/1/2 93/1/2 96/1/2
f 93/2/2 94/2/2 97/2/2
f 96/1/2 93/1/2 97/1/2
f 94/1/2 95/1/2 98/1/2
f 97/2/2 94/2/2 98/2/2
f 98/1/2 95/1/2 99/1/2
f 100/2/2 101/2/2 102/2/2
f 102/2/2 101/2/2 103/2/2
f 103/2/2 101/2/2 104/2/2
f 104/2/2 101/2/2 105/2/2
f 102/1/2 103/1/2 106/1/2
f 103/2/2 104/2/2 106/2/2
f 104/1/2 105/1/2 107/1/2
f 106/2/2 104/2/2 107/2/2
f 102/1/2 106/1/2 108/1/2
f 106/1/2 107/1/2 108/1/2
f 107/1/2 105/1/2 109/1/2
f 108/1/2 107/1/2 109/1/2
f 112/1/3 111/1/3 110/1/3
f 113/1/3 111/1/3 112/1/3
f 115/2/3 113/2/3 112/2/3
f 115/2/3 114/2/3 113/2/3
f 116/2/3 114/2/3 115/2/3
f 117/2/3 114/2/3 116/2/3
f 119/2/3 117/2/3 116/2/3
f 119/1/3 118/1/3 117/1/3
f 120/1/3 118/1/3 119/1/3
f 122/1/3 116/1/3 115/1/3
f 123/2/3 121/2/3 120/2/3
f 123/1/3 116/1/3 122/1/3
f 123/2/3 119/2/3 116/2/3
f 123/2/3 120/2/3 119/2/3
f 124/2/3 121/2/3 123/2/3
f 126/1/3 125/1/3 124/1/3
f 126/1/3 124/1/3 123/1/3
f 127/1/3 125/1/3 126/1/3
f 128/1/3 125/1/3 127/1/3
f 129/1/3 125/1/3 128/1/3
f 132/1/3 131/1/3 130/1/3
f 132/2/3 130/2/3 129/2/3
f 132/2/3 129/2/3 128/2/3
f 133/1/3 131/1/3 132/1/3
f 134/1/3 128/1/3 127/1/3
f 135/2/3 132/2/3 128/2/3
f 135/1/3 128/1/3 134/1/3
f 135/2/3 133/2/3 132/2/3
f 136/2/3 133/2/3 135/2/3
f 137/1/3 136/1/3 135/1/3
f 138/1/3 136/1/3 137/1/3
f 139/2/3 133/2/3 136/2/3
f 139/1/3 136/1/3 138/1/3
f 140/2/3 133/2/3 139/2/3
f 141/2/3 138/2/3 137/2/3
f 142/1/3 139/1/3 138/1/3
f 142/2/3 138/2/3 141/2/3
f 142/1/3 140/1/3 139/1/3
f 143/1/3 140/1/3 142/1/3
f 146/1/3 145/1/3 144/1/3
f 147/1/3 145/1/3 146/1/3
f 149/1/3 148/1/3 147/1/3
f 150/1/3 148/1/3 149/1/3
f 152/1/3 151/1/3 150/1/3
f 153/1/3 151/1/3 152/1/3
f 155/1/3 154/1/3 153/1/3
f 156/1/3 154/1/3 155/1/3
f 158/2/3 157/2/3 156/2/3
f 159/2/3 157/2/3 158/2/3
f 161/1/3 160/1/3 159/1/3
f 162/1/3 160/1/3 161/1/3
f 164/2/3 162/2/3 161/2/3
f 165/1/3 163/1/3 162/1/3
f 165/2/3 162/2/3 164/2/3
f 166/1/3 163/1/3 165/1/3
f 167/1/4 168/1/4 169/1/4
f 169/1/4 168/1/4 170/1/4
f 170/1/4 171/1/4 172/1/4
f 172/1/4 171/1/4 173/1/4
f 173/1/4 171/1/4 174/1/4
f 174/2/4 175/2/4 176/2/4
f 176/2/4 175/2/4 177/2/4
f 176/1/4 177/1/4 179/1/4
f 177/2/4 178/2/4 180/2/4
f 179/1/4 177/1/4 180/1/4
f 180/2/4 178/2/4 181/2/4
f 180/2/4 181/2/4 183/2/4
f 181/1/4 182/1/4 184/1/4
f 183/2/4 181/2/4 184/2/4
f 184/1/4 182/1/4 185/1/4
f 185/1/4 186/1/4 187/1/4
f 184/1/4 185/1/4 187/1/4
f 187/1/4 186/1/4 188/1/4
f 188/1/4 189/1/4 190/1/4
f 190/1/4 189/1/4 191/1/4
f 192/1/4 193/1/4 194/1/4
f 194/1/4 193/1/4 195/1/4
f 194/2/4 195/2/4 196/2/4
f 196/2/4 195/2/4 197/2/4
f 196/1/4 197/1/4 199/1/4
f 197/2/4 198/2/4 199/2/4
f 199/2/4 198/2/4 200/2/4
f 199/1/4 200/1/4 201/1/4
f 196/1/4 199/1/4 203/1/4
f 199/1/4 201/1/4 203/1/4
f 203/1/4 201/1/4 204/1/4
f 201/2/4 202/2/4 205/2/4
f 204/1/4 201/1/4 207/1/4
f 205/2/4 206/2/4 208/2/4
f 207/1/4 201/1/4 208/1/4
f 201/2/4 205/2/4 208/2/4
f 208/2/4 206/2/4 209/2/4
f 207/2/4 208/2/4 211/2/4
f 208/2/4 209/2/4 211/2/4
f 211/2/4 209/2/4 212/2/4
f 212/2/4 209/2/4 213/2/4
f 209/1/4 210/1/4 214/1/4
f 212/1/4 213/1/4 216/1/4
f 213/2/4 209/2/4 217/2/4
f 216/1/4 213/1/4 217/1/4
f 214/1/4 215/1/4 218/1/4
f 217/2/4 209/2/4 218/2/4
f 209/1/4 214/1/4 218/1/4
f 218/1/4 215/1/4 219/1/4
f 219/1/4 215/1/4 220/1/4
f 217/1/4 218/1/4 221/1/4
f 218/1/4 219/1/4 221/1/4
f 221/1/4 219/1/4 222/1/4
f 219/2/4 220/2/4 223/2/4
f 222/1/4 219/1/4 223/1/4
f 223/2/4 220/2/4 224/2/4
f 221/2/4 222/2/4 225/2/4
f 222/1/4 223/1/4 226/1/4
f 225/2/4 222/2/4 226/2/4
f 223/1/4 224/1/4 226/1/4
f 226/1/4 224/1/4 227/1/4
f 233/1/5 229/1/5 228/1/5
f 234/2/5 230/2/5 229/2/5
f 234/1/5 229/1/5 233/1/5
f 235/1/5 231/1/5 230/1/5
f 235/2/5 230/2/5 234/2/5
f 236/1/5 231/1/5 235/1/5
f 237/1/5 234/1/5 233/1/5
f 237/1/5 233/1/5 232/1/5
f 237/2/5 236/2/5 235/2/5
f 237/1/5 235/1/5 234/1/5
f 238/2/5 236/2/5 237/2/5
f 239/1/5 237/1/5 232/1/5
f 239/1/5 238/1/5 237/1/5
f 240/1/5 238/1/5 239/1/5
f 241/1/5 238/1/5 240/1/5
f 242/1/5 238/1/5 241/1/5
f 243/2/5 236/2/5 238/2/5
f 243/1/5 238/1/5 242/1/5
f 244/2/5 236/2/5 243/2/5
f 245/1/5 241/1/5 240/1/5
f 246/2/5 242/2/5 241/2/5
f 246/1/5 241/1/5 245/1/5
f 247/1/5 244/1/5 243/1/5
f 247/2/5 242/2/5 246/2/5
f 247/1/5 243/1/5 242/1/5
f 248/1/5 244/1/5 247/1/5
f 251/1/5 250/1/5 249/1/5
f 252/1/5 250/1/5 251/1/5
f 253/1/5 250/1/5 252/1/5
f 254/1/5 252/1/5 251/1/5
f 255/1/5 252/1/5 254/1/5
f 256/2/5 253/2/5 252/2/5
f 256/1/5 252/1/5 255/1/5
f 257/2/5 253/2/5 256/2/5
f 260/1/5 259/1/5 258/1/5
f 261/1/5 259/1/5 260/1/5
f 262/1/5 260/1/5 258/1/5
f 263/2/5 261/2/5 260/2/5
f 263/1/5 260/1/5 262/1/5
f 264/2/5 261/2/5 263/2/5
f 265/1/5 263/1/5 262/1/5
f 265/1/5 264/1/5 263/1/5
f 266/1/5 264/1/5 265/1/5
f 270/1/5 268/1/5 267/1/5
f 271/2/5 269/2/5 268/2/5
f 271/1/5 268/1/5 270/1/5
f 272/2/5 271/2/5 270/2/5
f 273/2/5 269/2/5 271/2/5
f 273/2/5 271/2/5 272/2/5
f 274/1/5 273/1/5 272/1/5
f 275/2/5 269/2/5 273/2/5
f 275/1/5 273/1/5 274/1/5
f 276/2/5 269/2/5 275/2/5
f 277/1/6 278/1/6 280/1/6
f 280/1/6 278/1/6 281/1/6
f 279/1/6 280/1/6 282/1/6
f 282/1/6 280/1/6 283/1/6
f 283/1/6 284/1/6 286/1/6
f 284/2/6 285/2/6 287/2/6
f 286/1/6 284/1/6 287/1/6
f 287/2/6 285/2/6 288/2/6
f 289/2/6 290/2/6 292/2/6
f 292/2/6 290/2/6 293/2/6
f 291/1/6 292/1/6 294/1/6
f 291/1/6 294/1/6 295/1/6
f 295/1/6 294/1/6 296/1/6
f 296/2/6 297/2/6 299/2/6
f 297/1/6 298/1/6 300/1/6
f 299/2/6 297/2/6 300/2/6
f 300/1/6 298/1/6 301/1/6
f 302/1/6 303/1/6 305/1/6
f 305/1/6 303/1/6 306/1/6
f 304/1/6 305/1/6 307/1/6
f 307/1/6 305/1/6 308/1/6
f 307/2/6 308/2/6 309/2/6
f 309/2/6 308/2/6 310/2/6
f 311/2/6 312/2/6 313/2/6
f 313/2/6 312/2/6 314/2/6
f 315/2/6 316/2/6 318/2/6
f 318/2/6 316/2/6 319/2/6
f 317/1/6 318/1/6 320/1/6
f 320/1/6 318/1/6 321/1/6
f 320/2/6 321/2/6 322/2/6
f 322/2/6 321/2/6 323/2/6
f 324/2/6 325/2/6 326/2/6
f 326/2/6 325/2/6 327/2/6
f 328/1/6 329/1/6 331/1/6
f 331/1/6 329/1/6 332/1/6
f 332/1/6 329/1/6 333/1/6
f 330/2/6 331/2/6 334/2/6
f 334/2/6 331/2/6 335/2/6
f 334/1/6 335/1/6 336/1/6
f 336/1/6 335/1/6 337/1/6
f 338/1/6 339/1/6 340/1/6
f 340/1/6 339/1/6 341/1/6
f 341/1/6 342/1/6 343/1/6
f 343/1/6 342/1/6 344/1/6
f 345/1/6 346/1/6 350/1/6
f 346/2/6 347/2/6 351/2/6
f 350/1/6 346/1/6 351/1/6
f 347/1/6 348/1/6 352/1/6
f 351/2/6 347/2/6 352/2/6
f 349/1/6 350/1/6 353/1/6
f 350/2/6 351/2/6 354/2/6
f 353/1/6 350/1/6 354/1/6
f 351/1/6 352/1/6 355/1/6
f 354/2/6 351/2/6 355/2/6
f 355/1/6 352/1/6 356/1/6
f 352/1/6 348/1/6 357/1/6
f 356/1/6 352/1/6 357/1/6
f 355/1/6 356/1/6 358/1/6
f 354/1/6 355/1/6 358/1/6
f 356/2/6 357/2/6 359/2/6
f 358/1/6 356/1/6 359/1/6
f 357/1/6 348/1/6 360/1/6
f 359/2/6 357/2/6 360/2/6
f 360/1/6 348/1/6 361/1/6
